<svg width="458" height="203" viewBox="0 0 458 203" fill="none" xmlns="http://www.w3.org/2000/svg">
<g filter="url(#filter0_b_692_17583)">
<rect width="230.926" height="65.5533" rx="32.7767" transform="matrix(1 0 0 -1 0 124.058)" fill="#F4CB05" fill-opacity="0.1"/>
<rect x="0.744924" y="-0.744924" width="229.437" height="64.0635" rx="32.0317" transform="matrix(1 0 0 -1 0 122.568)" stroke="#F4CB05" stroke-width="1.48985"/>
<path d="M48.2193 95.2523C47.8856 96.1423 47.4088 96.913 46.7891 97.5646C46.1693 98.2002 45.4383 98.6849 44.596 99.0187C43.7696 99.3524 42.8638 99.5193 41.8785 99.5193C40.3847 99.5193 39.0895 99.1935 37.993 98.5419C36.9123 97.8745 36.0701 96.9369 35.4662 95.7291C34.8782 94.5213 34.5842 93.0831 34.5842 91.4145C34.5842 89.7459 34.8782 88.3077 35.4662 87.0999C36.0701 85.8921 36.9123 84.9624 37.993 84.3109C39.0895 83.6434 40.3688 83.3097 41.8308 83.3097C42.8479 83.3097 43.7537 83.4527 44.5483 83.7388C45.3429 84.0089 46.0183 84.4221 46.5745 84.9783C47.1466 85.5187 47.5995 86.1861 47.9333 86.9807L46.0501 87.8627C45.7005 86.9569 45.1919 86.2735 44.5245 85.8127C43.8729 85.3359 43.0227 85.0975 41.9739 85.0975C40.9091 85.0975 39.9715 85.3518 39.161 85.8603C38.3505 86.353 37.7149 87.0681 37.254 88.0057C36.8091 88.9433 36.5866 90.0796 36.5866 91.4145C36.5866 92.7335 36.8011 93.8698 37.2302 94.8233C37.6593 95.7609 38.2711 96.4839 39.0657 96.9925C39.8603 97.4851 40.7979 97.7314 41.8785 97.7314C42.9274 97.7314 43.8411 97.4692 44.6198 96.9448C45.3985 96.4045 45.9627 95.602 46.3123 94.5372L48.2193 95.2523ZM58.4825 91.5813C58.4825 90.6914 58.2441 90.0081 57.7674 89.5313C57.2906 89.0387 56.6152 88.7924 55.7412 88.7924C54.9148 88.7924 54.2156 88.9751 53.6435 89.3406C53.0714 89.6902 52.6502 90.2623 52.3801 91.0569L50.8306 90.1034C51.1485 89.2135 51.7365 88.4984 52.5946 87.958C53.4528 87.4018 54.5175 87.1237 55.7889 87.1237C56.647 87.1237 57.4257 87.2747 58.1249 87.5766C58.8242 87.8627 59.3724 88.3077 59.7697 88.9115C60.1829 89.4995 60.3895 90.2623 60.3895 91.1999V96.9686C60.3895 97.5407 60.6914 97.8268 61.2953 97.8268C61.5973 97.8268 61.8913 97.7871 62.1773 97.7076L62.082 99.2094C61.7641 99.3683 61.351 99.4477 60.8424 99.4477C60.3816 99.4477 59.9684 99.3603 59.6029 99.1855C59.2374 99.0107 58.9513 98.7485 58.7447 98.3989C58.5381 98.0334 58.4348 97.5805 58.4348 97.0402V96.8018L58.9116 96.8733C58.7209 97.4931 58.3951 98.0016 57.9342 98.3989C57.4734 98.7803 56.9569 99.0663 56.3848 99.257C55.8127 99.4319 55.2485 99.5193 54.6923 99.5193C53.9931 99.5193 53.3415 99.4001 52.7376 99.1617C52.1338 98.9233 51.6491 98.5658 51.2835 98.089C50.9339 97.5964 50.7591 96.9925 50.7591 96.2773C50.7591 95.3874 51.0531 94.6564 51.6411 94.0843C52.245 93.4963 53.0793 93.099 54.1441 92.8924L58.8639 91.9627V93.536L55.026 94.3227C54.2474 94.4816 53.6673 94.7041 53.2859 94.9901C52.9045 95.2762 52.7138 95.6735 52.7138 96.182C52.7138 96.6746 52.9045 97.0799 53.2859 97.3977C53.6832 97.6997 54.2394 97.8506 54.9545 97.8506C55.4154 97.8506 55.8524 97.795 56.2656 97.6838C56.6947 97.5566 57.0761 97.3739 57.4098 97.1355C57.7435 96.8812 58.0057 96.5713 58.1964 96.2058C58.3871 95.8244 58.4825 95.3795 58.4825 94.8709V91.5813ZM65.0237 99.2809V87.3621H66.5731L66.8353 89.3168C67.1691 88.5858 67.6538 88.0375 68.2894 87.672C68.941 87.3065 69.7276 87.1237 70.6493 87.1237C70.8559 87.1237 71.0784 87.1396 71.3168 87.1714C71.5711 87.2032 71.7856 87.2667 71.9604 87.3621L71.6267 89.1022C71.4519 89.0387 71.2612 88.991 71.0546 88.9592C70.848 88.9274 70.554 88.9115 70.1726 88.9115C69.6799 88.9115 69.1794 89.0546 68.6708 89.3406C68.1782 89.6267 67.765 90.0637 67.4313 90.6517C67.0975 91.2238 66.9307 91.9548 66.9307 92.8447V99.2809H65.0237ZM79.0301 99.5193C78.0448 99.5193 77.139 99.2729 76.3126 98.7803C75.4863 98.2877 74.8268 97.5805 74.3341 96.6588C73.8415 95.7211 73.5951 94.6087 73.5951 93.3215C73.5951 92.0025 73.8574 90.8821 74.3818 89.9604C74.9062 89.0387 75.5975 88.3394 76.4557 87.8627C77.3138 87.37 78.2355 87.1237 79.2208 87.1237C80.2061 87.1237 81.0563 87.378 81.7714 87.8865C82.5025 88.3951 82.9872 89.0705 83.2255 89.9127L82.9872 90.0796V81.8795H84.8942V99.2809H83.2255L83.0587 96.3965L83.3209 96.2535C83.2096 96.9527 82.9395 97.5487 82.5104 98.0413C82.0972 98.5181 81.5807 98.8836 80.961 99.1379C80.3571 99.3921 79.7135 99.5193 79.0301 99.5193ZM79.2208 97.8506C79.9836 97.8506 80.6431 97.6599 81.1993 97.2785C81.7714 96.8971 82.2085 96.3568 82.5104 95.6576C82.8282 94.9424 82.9872 94.1081 82.9872 93.1546C82.9872 92.2488 82.8282 91.4701 82.5104 90.8185C82.2085 90.167 81.7794 89.6664 81.2232 89.3168C80.6829 88.9672 80.0472 88.7924 79.3162 88.7924C78.1084 88.7924 77.1708 89.2055 76.5033 90.0319C75.8359 90.8583 75.5022 91.9548 75.5022 93.3215C75.5022 94.6882 75.8279 95.7847 76.4795 96.6111C77.1311 97.4374 78.0448 97.8506 79.2208 97.8506ZM99.7157 83.5481V99.2809H97.8087V83.5481H99.7157ZM108.586 99.5193C107.426 99.5193 106.353 99.2729 105.368 98.7803C104.398 98.2877 103.652 97.5884 103.127 96.6826L104.748 95.5145C105.098 96.2456 105.606 96.8177 106.274 97.2309C106.957 97.644 107.775 97.8506 108.729 97.8506C109.571 97.8506 110.231 97.6917 110.707 97.3739C111.184 97.0402 111.423 96.6111 111.423 96.0866C111.423 95.7529 111.311 95.451 111.089 95.1808C110.882 94.8948 110.477 94.6882 109.873 94.561L107.013 93.9651C105.853 93.7267 105.018 93.3294 104.51 92.7732C104.017 92.217 103.771 91.5257 103.771 90.6994C103.771 90.0478 103.953 89.4519 104.319 88.9115C104.7 88.3712 105.233 87.9421 105.916 87.6243C106.615 87.2906 107.434 87.1237 108.371 87.1237C109.547 87.1237 110.541 87.3541 111.351 87.815C112.162 88.2759 112.765 88.9274 113.163 89.7697L111.566 90.8185C111.295 90.1193 110.858 89.6108 110.255 89.2929C109.651 88.9592 109.023 88.7924 108.371 88.7924C107.799 88.7924 107.307 88.8718 106.893 89.0307C106.496 89.1896 106.186 89.4121 105.964 89.6982C105.757 89.9683 105.654 90.2782 105.654 90.6278C105.654 90.9775 105.773 91.3032 106.011 91.6052C106.25 91.8912 106.695 92.0978 107.346 92.225L110.326 92.8447C111.438 93.0672 112.217 93.4327 112.662 93.9413C113.107 94.4498 113.33 95.0696 113.33 95.8006C113.33 96.5475 113.131 97.207 112.734 97.7791C112.336 98.3353 111.78 98.7644 111.065 99.0663C110.35 99.3683 109.524 99.5193 108.586 99.5193ZM121.157 99.5193C119.996 99.5193 118.924 99.2729 117.938 98.7803C116.969 98.2877 116.222 97.5884 115.698 96.6826L117.319 95.5145C117.668 96.2456 118.177 96.8177 118.844 97.2309C119.528 97.644 120.346 97.8506 121.3 97.8506C122.142 97.8506 122.801 97.6917 123.278 97.3739C123.755 97.0402 123.993 96.6111 123.993 96.0866C123.993 95.7529 123.882 95.451 123.659 95.1808C123.453 94.8948 123.048 94.6882 122.444 94.561L119.583 93.9651C118.423 93.7267 117.589 93.3294 117.08 92.7732C116.588 92.217 116.341 91.5257 116.341 90.6994C116.341 90.0478 116.524 89.4519 116.89 88.9115C117.271 88.3712 117.803 87.9421 118.487 87.6243C119.186 87.2906 120.004 87.1237 120.942 87.1237C122.118 87.1237 123.111 87.3541 123.922 87.815C124.732 88.2759 125.336 88.9274 125.733 89.7697L124.136 90.8185C123.866 90.1193 123.429 89.6108 122.825 89.2929C122.221 88.9592 121.594 88.7924 120.942 88.7924C120.37 88.7924 119.877 88.8718 119.464 89.0307C119.067 89.1896 118.757 89.4121 118.534 89.6982C118.328 89.9683 118.224 90.2782 118.224 90.6278C118.224 90.9775 118.344 91.3032 118.582 91.6052C118.82 91.8912 119.265 92.0978 119.917 92.225L122.897 92.8447C124.009 93.0672 124.788 93.4327 125.233 93.9413C125.678 94.4498 125.9 95.0696 125.9 95.8006C125.9 96.5475 125.702 97.207 125.304 97.7791C124.907 98.3353 124.351 98.7644 123.636 99.0663C122.92 99.3683 122.094 99.5193 121.157 99.5193ZM133.751 99.5193C132.988 99.5193 132.265 99.3762 131.582 99.0902C130.914 98.8041 130.366 98.3433 129.937 97.7076C129.524 97.056 129.317 96.2138 129.317 95.1808V87.3621H131.224V94.6802C131.224 95.888 131.486 96.7223 132.011 97.1832C132.535 97.6281 133.274 97.8506 134.228 97.8506C134.673 97.8506 135.11 97.7791 135.539 97.6361C135.968 97.4772 136.349 97.2388 136.683 96.921C137.033 96.5872 137.303 96.1661 137.493 95.6576C137.7 95.149 137.803 94.5452 137.803 93.8459V87.3621H139.71V99.2809H138.042L137.923 97.4692C137.509 98.1844 136.945 98.7088 136.23 99.0425C135.531 99.3603 134.704 99.5193 133.751 99.5193ZM151.109 91.5813C151.109 90.6914 150.871 90.0081 150.394 89.5313C149.917 89.0387 149.242 88.7924 148.368 88.7924C147.541 88.7924 146.842 88.9751 146.27 89.3406C145.698 89.6902 145.277 90.2623 145.007 91.0569L143.457 90.1034C143.775 89.2135 144.363 88.4984 145.221 87.958C146.079 87.4018 147.144 87.1237 148.416 87.1237C149.274 87.1237 150.052 87.2747 150.752 87.5766C151.451 87.8627 151.999 88.3077 152.396 88.9115C152.81 89.4995 153.016 90.2623 153.016 91.1999V96.9686C153.016 97.5407 153.318 97.8268 153.922 97.8268C154.224 97.8268 154.518 97.7871 154.804 97.7076L154.709 99.2094C154.391 99.3683 153.978 99.4477 153.469 99.4477C153.008 99.4477 152.595 99.3603 152.23 99.1855C151.864 99.0107 151.578 98.7485 151.371 98.3989C151.165 98.0334 151.061 97.5805 151.061 97.0402V96.8018L151.538 96.8733C151.348 97.4931 151.022 98.0016 150.561 98.3989C150.1 98.7803 149.584 99.0663 149.011 99.257C148.439 99.4319 147.875 99.5193 147.319 99.5193C146.62 99.5193 145.968 99.4001 145.364 99.1617C144.76 98.9233 144.276 98.5658 143.91 98.089C143.561 97.5964 143.386 96.9925 143.386 96.2773C143.386 95.3874 143.68 94.6564 144.268 94.0843C144.872 93.4963 145.706 93.099 146.771 92.8924L151.491 91.9627V93.536L147.653 94.3227C146.874 94.4816 146.294 94.7041 145.913 94.9901C145.531 95.2762 145.34 95.6735 145.34 96.182C145.34 96.6746 145.531 97.0799 145.913 97.3977C146.31 97.6997 146.866 97.8506 147.581 97.8506C148.042 97.8506 148.479 97.795 148.892 97.6838C149.321 97.5566 149.703 97.3739 150.036 97.1355C150.37 96.8812 150.632 96.5713 150.823 96.2058C151.014 95.8244 151.109 95.3795 151.109 94.8709V91.5813ZM157.65 99.2809V87.3621H159.319L159.486 90.0319L159.176 89.7697C159.43 89.134 159.772 88.6255 160.201 88.2441C160.63 87.8468 161.123 87.5607 161.679 87.3859C162.251 87.2111 162.839 87.1237 163.443 87.1237C164.301 87.1237 165.08 87.2906 165.779 87.6243C166.478 87.9421 167.034 88.4348 167.448 89.1022C167.877 89.7697 168.091 90.6199 168.091 91.6529V99.2809H166.184V92.3203C166.184 91.0013 165.898 90.0875 165.326 89.579C164.77 89.0546 164.079 88.7924 163.252 88.7924C162.68 88.7924 162.108 88.9274 161.536 89.1976C160.964 89.4677 160.487 89.9048 160.106 90.5087C159.74 91.1125 159.557 91.923 159.557 92.9401V99.2809H157.65ZM177.344 87.1237C178.17 87.1237 178.893 87.2509 179.513 87.5051C180.148 87.7594 180.697 88.1249 181.158 88.6017C181.618 89.0784 181.992 89.6426 182.278 90.2941L180.466 91.1523C180.212 90.3895 179.823 89.8094 179.298 89.4121C178.79 88.9989 178.122 88.7924 177.296 88.7924C176.501 88.7924 175.818 88.9751 175.246 89.3406C174.674 89.6902 174.237 90.2067 173.935 90.8901C173.633 91.5575 173.482 92.368 173.482 93.3215C173.482 94.2591 173.633 95.0696 173.935 95.7529C174.237 96.4363 174.674 96.9607 175.246 97.3262C175.818 97.6758 176.501 97.8506 177.296 97.8506C177.916 97.8506 178.448 97.7553 178.893 97.5646C179.354 97.3739 179.727 97.0958 180.013 96.7303C180.315 96.3648 180.522 95.9198 180.633 95.3954L182.397 96.0151C182.127 96.7462 181.753 97.3739 181.277 97.8983C180.816 98.4227 180.252 98.828 179.584 99.114C178.933 99.3842 178.186 99.5193 177.344 99.5193C176.231 99.5193 175.238 99.2729 174.364 98.7803C173.49 98.2877 172.806 97.5805 172.314 96.6588C171.821 95.7211 171.575 94.6087 171.575 93.3215C171.575 92.0343 171.821 90.9298 172.314 90.0081C172.806 89.0705 173.49 88.3553 174.364 87.8627C175.238 87.37 176.231 87.1237 177.344 87.1237ZM190.73 99.5193C189.602 99.5193 188.593 99.2729 187.703 98.7803C186.829 98.2877 186.145 97.5805 185.653 96.6588C185.16 95.7211 184.914 94.6087 184.914 93.3215C184.914 92.0343 185.16 90.9298 185.653 90.0081C186.145 89.0705 186.821 88.3553 187.679 87.8627C188.537 87.37 189.514 87.1237 190.611 87.1237C191.723 87.1237 192.669 87.3621 193.447 87.8388C194.242 88.3156 194.846 88.9672 195.259 89.7935C195.672 90.604 195.879 91.5178 195.879 92.5348C195.879 92.805 195.871 93.0513 195.855 93.2738C195.839 93.4963 195.815 93.6949 195.784 93.8698H186.153V92.1773H194.949L193.972 92.368C193.972 91.2238 193.654 90.3418 193.018 89.722C192.399 89.1022 191.58 88.7924 190.563 88.7924C189.784 88.7924 189.109 88.9751 188.537 89.3406C187.981 89.6902 187.544 90.2067 187.226 90.8901C186.924 91.5575 186.773 92.368 186.773 93.3215C186.773 94.2591 186.932 95.0696 187.25 95.7529C187.568 96.4363 188.013 96.9607 188.585 97.3262C189.173 97.6758 189.872 97.8506 190.682 97.8506C191.556 97.8506 192.264 97.6838 192.804 97.35C193.36 97.0163 193.805 96.5634 194.139 95.9913L195.641 96.8733C195.339 97.4136 194.949 97.8824 194.472 98.2797C194.012 98.677 193.463 98.9869 192.828 99.2094C192.208 99.416 191.509 99.5193 190.73 99.5193Z" fill="white"/>
</g>
<g filter="url(#filter1_b_692_17583)">
<rect width="154.944" height="65.5533" rx="32.7767" transform="matrix(0.997762 -0.0668643 -0.0668643 -0.997762 126.022 202.421)" fill="white" fill-opacity="0.1"/>
<rect x="0.693448" y="-0.793066" width="153.454" height="64.0635" rx="32.0317" transform="matrix(0.997762 -0.0668643 -0.0668643 -0.997762 125.971 200.883)" stroke="white" stroke-width="1.48985"/>
<path d="M164.323 175.022L163.271 159.324L168.86 158.95C170.715 158.826 172.097 159.123 173.005 159.843C173.913 160.562 174.412 161.588 174.501 162.92C174.555 163.713 174.373 164.45 173.957 165.131C173.539 165.796 172.916 166.243 172.088 166.474L172.089 166.498C173.036 166.61 173.802 166.988 174.387 167.634C174.987 168.263 175.315 169.005 175.373 169.862C175.462 171.194 175.034 172.297 174.09 173.173C173.144 174.033 171.743 174.525 169.888 174.649L164.323 175.022ZM166.106 173.111L170.22 172.835C171.346 172.759 172.163 172.474 172.672 171.978C173.196 171.481 173.43 170.82 173.375 169.996C173.319 169.155 172.998 168.532 172.413 168.125C171.843 167.701 170.996 167.527 169.87 167.602L165.755 167.878L166.106 173.111ZM165.636 166.094L169.346 165.846C171.566 165.697 172.618 164.766 172.504 163.054C172.39 161.357 171.223 160.583 169.003 160.732L165.293 160.981L165.636 166.094ZM185.935 165.857C185.875 164.969 185.592 164.303 185.084 163.859C184.575 163.4 183.885 163.199 183.013 163.257C182.188 163.313 181.503 163.542 180.957 163.945C180.409 164.332 180.027 164.931 179.811 165.742L178.201 164.894C178.459 163.985 178.998 163.232 179.818 162.635C180.637 162.023 181.681 161.674 182.949 161.589C183.805 161.532 184.592 161.631 185.31 161.885C186.027 162.124 186.604 162.531 187.041 163.107C187.492 163.666 187.749 164.413 187.812 165.349L188.198 171.105C188.236 171.675 188.556 171.941 189.159 171.9C189.46 171.88 189.751 171.821 190.031 171.722L190.036 173.227C189.73 173.407 189.323 173.514 188.815 173.548C188.355 173.579 187.937 173.519 187.561 173.369C187.185 173.219 186.882 172.977 186.652 172.642C186.422 172.291 186.288 171.846 186.252 171.307L186.236 171.069L186.717 171.108C186.568 171.739 186.277 172.269 185.843 172.696C185.409 173.107 184.913 173.427 184.355 173.656C183.796 173.868 183.239 173.993 182.684 174.03C181.986 174.077 181.328 174.002 180.71 173.804C180.091 173.607 179.584 173.283 179.187 172.831C178.805 172.363 178.59 171.772 178.543 171.059C178.483 170.171 178.728 169.422 179.276 168.812C179.839 168.185 180.645 167.732 181.694 167.455L186.341 166.212L186.446 167.782L182.669 168.823C181.903 169.034 181.339 169.295 180.978 169.605C180.616 169.916 180.453 170.326 180.487 170.833C180.519 171.324 180.737 171.716 181.139 172.008C181.555 172.282 182.12 172.396 182.834 172.348C183.294 172.317 183.726 172.232 184.131 172.094C184.55 171.938 184.919 171.73 185.236 171.47C185.552 171.194 185.793 170.868 185.958 170.49C186.123 170.097 186.189 169.646 186.155 169.139L185.935 165.857ZM192.976 173.102L192.179 161.21L193.844 161.098L194.189 163.751L193.862 163.51C194.073 162.859 194.38 162.328 194.783 161.919C195.185 161.494 195.657 161.176 196.2 160.964C196.759 160.751 197.34 160.625 197.943 160.585C198.799 160.527 199.587 160.642 200.307 160.928C201.026 161.198 201.614 161.653 202.071 162.291C202.544 162.928 202.814 163.762 202.883 164.793L203.394 172.404L201.491 172.531L201.025 165.586C200.937 164.27 200.591 163.378 199.986 162.908C199.396 162.422 198.689 162.207 197.864 162.262C197.293 162.3 196.731 162.473 196.179 162.781C195.626 163.089 195.179 163.557 194.839 164.185C194.515 164.812 194.387 165.633 194.455 166.648L194.879 172.974L192.976 173.102ZM217.346 159.523L212.553 165.005L212.131 165.487L208.492 169.649L208.333 167.271L214.944 159.684L217.346 159.523ZM208.441 154.625L209.605 171.987L207.702 172.115L206.538 154.752L208.441 154.625ZM212.654 164.018L218.429 171.396L216.121 171.551L211.132 165.196L212.654 164.018ZM239.834 169.962L237.646 170.108L232.955 163.924L229.108 170.68L226.896 170.829L231.854 162.469L226.319 155.099L228.555 154.949L232.937 160.796L236.547 154.414L238.616 154.275L234.036 162.227L239.834 169.962Z" fill="white"/>
</g>
<g filter="url(#filter2_b_692_17583)">
<rect width="154.944" height="65.5533" rx="32.7767" transform="matrix(0.997269 0.0738589 0.0738589 -0.997269 52.9777 71.8613)" fill="white" fill-opacity="0.1"/>
<rect x="0.797909" y="-0.68787" width="153.454" height="64.0635" rx="32.0317" transform="matrix(0.997269 0.0738589 0.0738589 -0.997269 53.0306 70.4285)" stroke="white" stroke-width="1.48985"/>
<path d="M94.7449 50.1101L95.9069 34.4203L101.493 34.834C103.348 34.9714 104.674 35.46 105.472 36.3C106.271 37.1399 106.62 38.2255 106.522 39.5568C106.463 40.3492 106.18 41.0533 105.672 41.669C105.166 42.2689 104.486 42.6249 103.633 42.737L103.631 42.7608C104.553 43.0044 105.259 43.4869 105.747 44.2083C106.252 44.915 106.473 45.6962 106.41 46.552C106.311 47.8833 105.733 48.9161 104.675 49.6504C103.618 50.3689 102.162 50.6594 100.308 50.5221L94.7449 50.1101ZM96.7787 48.468L100.891 48.7726C102.017 48.856 102.866 48.6878 103.439 48.2681C104.027 47.8496 104.352 47.2283 104.413 46.4041C104.475 45.5642 104.246 44.9018 103.724 44.417C103.219 43.9174 102.404 43.626 101.279 43.5427L97.1661 43.2381L96.7787 48.468ZM97.2981 41.4552L101.007 41.7298C103.225 41.8941 104.398 41.1205 104.525 39.4089C104.65 37.7131 103.604 36.7831 101.385 36.6187L97.6766 36.3441L97.2981 41.4552ZM117.43 44.0696C117.495 43.1821 117.308 42.483 116.868 41.9723C116.429 41.4458 115.773 41.1503 114.902 41.0857C114.078 41.0247 113.367 41.1553 112.769 41.4775C112.173 41.784 111.711 42.3234 111.383 43.0958L109.908 42.0305C110.29 41.1665 110.93 40.4967 111.825 40.0213C112.722 39.53 113.805 39.3313 115.073 39.4252C115.928 39.4885 116.694 39.6966 117.369 40.0494C118.045 40.3863 118.559 40.8705 118.91 41.5021C119.279 42.119 119.429 42.895 119.36 43.8301L118.933 49.583C118.891 50.1535 119.171 50.4611 119.773 50.5057C120.075 50.528 120.371 50.5101 120.662 50.452L120.456 51.9426C120.127 52.0776 119.709 52.1263 119.202 52.0888C118.742 52.0547 118.337 51.9371 117.985 51.7357C117.634 51.5344 117.368 51.2518 117.188 50.8879C117.008 50.5081 116.939 50.0488 116.979 49.5099L116.996 49.2722L117.467 49.3787C117.231 49.9827 116.868 50.4658 116.379 50.828C115.891 51.1743 115.355 51.4214 114.771 51.5694C114.187 51.7014 113.618 51.7469 113.063 51.7059C112.366 51.6542 111.725 51.4872 111.141 51.2049C110.556 50.9226 110.099 50.5302 109.77 50.0277C109.457 49.5106 109.328 48.8955 109.38 48.1823C109.446 47.2948 109.793 46.5875 110.422 46.0604C111.068 45.5186 111.929 45.184 113.006 45.0566L117.782 44.4781L117.666 46.0471L113.78 46.5481C112.992 46.6491 112.397 46.8281 111.995 47.0852C111.594 47.3423 111.374 47.7244 111.337 48.2316C111.3 48.7229 111.461 49.1411 111.818 49.4862C112.191 49.8167 112.735 50.0083 113.448 50.0611C113.908 50.0952 114.348 50.072 114.768 49.9916C115.205 49.8965 115.599 49.7424 115.95 49.5293C116.301 49.3004 116.586 49.0107 116.803 48.6603C117.021 48.294 117.149 47.8573 117.187 47.3502L117.43 44.0696ZM123.384 52.2312L124.265 40.345L125.929 40.4682L125.898 43.143L125.608 42.8587C125.909 42.2435 126.287 41.7616 126.743 41.4129C127.2 41.0484 127.713 40.7995 128.28 40.6663C128.864 40.5342 129.457 40.4905 130.059 40.5351C130.915 40.5984 131.679 40.8224 132.352 41.2068C133.025 41.5754 133.544 42.1078 133.906 42.804C134.285 43.5013 134.436 44.365 134.36 45.3952L133.797 53.0023L131.895 52.8615L132.409 45.9199C132.506 44.6045 132.288 43.6721 131.755 43.1227C131.24 42.5586 130.57 42.2461 129.745 42.1851C129.175 42.1428 128.594 42.2353 128.004 42.4624C127.413 42.6896 126.906 43.0902 126.481 43.6643C126.072 44.2395 125.829 45.0343 125.754 46.0486L125.286 52.372L123.384 52.2312ZM149.419 42.2079L143.904 46.9625L143.419 47.3807L139.231 50.9907L139.407 48.6134L147.018 42.0301L149.419 42.2079ZM141.29 36.1082L140.004 53.4621L138.103 53.3213L139.388 35.9674L141.29 36.1082ZM144.143 46.0002L148.824 54.1153L146.518 53.9445L142.471 46.952L144.143 46.0002ZM170.219 55.6999L168.032 55.5379L164.256 48.7566L159.498 54.9058L157.287 54.7421L163.37 47.1612L158.925 39.0875L161.159 39.253L164.677 45.6565L169.147 39.8445L171.215 39.9977L165.564 47.2281L170.219 55.6999Z" fill="white"/>
</g>
<g filter="url(#filter3_b_692_17583)">
<rect width="257.744" height="65.5533" rx="32.7767" transform="matrix(0.994079 -0.108658 -0.108658 -0.994079 196.515 93.171)" fill="white" fill-opacity="0.1"/>
<rect x="0.659572" y="-0.821455" width="256.254" height="64.0635" rx="32.0317" transform="matrix(0.994079 -0.108658 -0.108658 -0.994079 196.43 91.6046)" stroke="white" stroke-width="1.48985"/>
<path d="M239.979 47.6693L235.765 63.9565L233.608 64.1922L225.951 49.2027L227.989 48.98L233.151 59.3504L234.486 62.3458L235.144 59.1565L237.941 47.8921L239.979 47.6693ZM243.971 48.7678C243.544 48.8144 243.183 48.726 242.886 48.5026C242.604 48.2617 242.44 47.9279 242.393 47.5014C242.347 47.0749 242.436 46.7214 242.661 46.441C242.9 46.1431 243.233 45.9708 243.66 45.9242C244.086 45.8776 244.441 45.9747 244.723 46.2157C245.019 46.4391 245.19 46.764 245.237 47.1906C245.284 47.6171 245.187 47.9793 244.948 48.2773C244.723 48.5576 244.397 48.7211 243.971 48.7678ZM245.167 50.939L246.462 62.7872L244.566 62.9945L243.271 51.1462L245.167 50.939ZM250.861 62.3064L249.566 50.4582L251.106 50.2899L251.579 52.2045C251.831 51.4415 252.254 50.8439 252.846 50.4114C253.454 49.9773 254.216 49.7101 255.132 49.61C255.338 49.5875 255.56 49.5792 255.801 49.5849C256.057 49.5888 256.277 49.6287 256.461 49.7045L256.319 51.4706C256.138 51.4264 255.943 51.3997 255.734 51.3906C255.526 51.3814 255.232 51.3976 254.852 51.439C254.363 51.4926 253.881 51.6891 253.406 52.0287C252.948 52.3666 252.584 52.846 252.316 53.4667C252.047 54.0717 251.96 54.8165 252.057 55.7012L252.756 62.0992L250.861 62.3064ZM260.95 45.8088L262.255 57.7518C262.319 58.3363 262.532 58.7526 262.895 59.0007C263.258 59.2488 263.7 59.3444 264.221 59.2874C264.68 59.2373 265.066 59.1152 265.38 58.9209C265.695 58.7267 265.972 58.4806 266.211 58.1827L267.048 59.6978C266.721 60.0693 266.315 60.3774 265.83 60.6223C265.361 60.8654 264.803 61.0223 264.155 61.0931C263.555 61.1587 262.983 61.1174 262.439 60.969C261.893 60.8048 261.438 60.5109 261.072 60.0873C260.72 59.6462 260.494 59.0473 260.396 58.2908L259.111 46.5373L260.95 45.8088ZM265.63 48.7023L265.809 50.3374L257.231 51.275L257.052 49.6399L265.63 48.7023ZM274.059 60.0106C273.301 60.0935 272.566 60.0299 271.856 59.8198C271.161 59.6079 270.566 59.2094 270.071 58.6241C269.589 58.0213 269.292 57.2064 269.18 56.1796L268.33 48.4072L270.226 48.2L271.021 55.4748C271.152 56.6754 271.504 57.4763 272.075 57.8774C272.645 58.2628 273.404 58.4036 274.351 58.3C274.794 58.2517 275.22 58.1331 275.631 57.9443C276.041 57.7397 276.394 57.4613 276.691 57.1091C277.002 56.7393 277.225 56.2914 277.36 55.7651C277.51 55.2371 277.547 54.6256 277.471 53.9305L276.766 47.4851L278.662 47.2779L279.957 59.1261L278.298 59.3074L277.983 57.5194C277.65 58.2752 277.146 58.8578 276.471 59.2673C275.811 59.6592 275.007 59.907 274.059 60.0106ZM290.452 50.2336C290.355 49.3489 290.044 48.6955 289.518 48.2734C288.991 47.8355 288.292 47.664 287.424 47.7589C286.602 47.8487 285.927 48.1064 285.398 48.5319C284.867 48.9416 284.511 49.5561 284.328 50.3753L282.685 49.5958C282.904 48.6766 283.411 47.9018 284.205 47.2715C284.998 46.6253 286.026 46.2332 287.29 46.095C288.143 46.0018 288.933 46.0672 289.661 46.2914C290.387 46.4998 290.981 46.8826 291.441 47.4397C291.916 47.9793 292.204 48.7152 292.306 49.6472L292.933 55.3818C292.995 55.9505 293.326 56.202 293.927 56.1364C294.227 56.1036 294.515 56.0322 294.79 55.9221L294.859 57.4253C294.56 57.6178 294.158 57.7417 293.652 57.797C293.194 57.847 292.774 57.8051 292.392 57.671C292.009 57.5369 291.697 57.3074 291.453 56.9823C291.208 56.6414 291.056 56.2024 290.998 55.6652L290.972 55.4283L291.453 55.4476C291.331 56.0844 291.062 56.6253 290.648 57.0703C290.231 57.4995 289.748 57.84 289.2 58.0918C288.651 58.3277 288.099 58.4759 287.547 58.5363C286.851 58.6123 286.191 58.5646 285.565 58.3933C284.938 58.2219 284.418 57.9191 284.003 57.4849C283.601 57.0332 283.362 56.4519 283.284 55.741C283.188 54.8563 283.4 54.0977 283.923 53.4651C284.459 52.8149 285.245 52.3293 286.281 52.0083L290.872 50.5713L291.043 52.1352L287.314 53.3342C286.557 53.5768 286.004 53.861 285.656 54.1868C285.308 54.5126 285.162 54.9283 285.217 55.4338C285.271 55.9235 285.504 56.3056 285.918 56.5801C286.346 56.8371 286.915 56.9268 287.626 56.8491C288.084 56.799 288.512 56.6962 288.911 56.5407C289.324 56.3677 289.683 56.1446 289.989 55.8714C290.293 55.5824 290.52 55.2458 290.67 54.8618C290.818 54.4619 290.864 54.0092 290.809 53.5037L290.452 50.2336ZM297.701 39.6815L299.263 53.9705C299.328 54.5708 299.485 54.9773 299.732 55.1901C299.977 55.3871 300.345 55.4588 300.834 55.4053C301.15 55.3708 301.408 55.3186 301.609 55.2487C301.809 55.1789 302.076 55.0618 302.41 54.8974L302.283 56.5899C302.042 56.7281 301.774 56.8373 301.479 56.9175C301.186 57.0135 300.881 57.0787 300.566 57.1133C299.602 57.2186 298.855 57.0365 298.324 56.567C297.809 56.0958 297.492 55.323 297.375 54.2488L295.805 39.8887L297.701 39.6815ZM324.148 54.2958L322.134 54.516L320.001 50.3608L312.916 51.1353L311.731 55.653L309.741 55.8706L314.121 39.5653L316.372 39.3192L324.148 54.2958ZM313.409 49.2829L319.12 48.6587L315.411 41.2708L313.409 49.2829ZM330.348 41.3886C331.169 41.2988 331.902 41.3466 332.545 41.532C333.205 41.7157 333.79 42.0195 334.3 42.4433C334.81 42.8672 335.242 43.3874 335.597 44.0041L333.89 45.054C333.554 44.3233 333.104 43.789 332.539 43.451C331.989 43.0956 331.303 42.9627 330.482 43.0525C329.692 43.1389 329.032 43.3948 328.503 43.8203C327.972 44.23 327.594 44.7909 327.368 45.503C327.141 46.1993 327.079 47.0214 327.182 47.9693C327.284 48.9013 327.522 49.6906 327.897 50.3371C328.271 50.9836 328.762 51.4574 329.371 51.7586C329.978 52.044 330.676 52.1435 331.466 52.0572C332.082 51.9898 332.601 51.8372 333.022 51.5993C333.46 51.3596 333.801 51.0426 334.045 50.6482C334.306 50.252 334.463 49.7872 334.516 49.2538L336.337 49.6782C336.148 50.4343 335.845 51.0989 335.428 51.672C335.027 52.2434 334.51 52.7075 333.878 53.0644C333.26 53.4038 332.532 53.6192 331.694 53.7107C330.589 53.8316 329.575 53.6947 328.652 53.2999C327.73 52.9052 326.974 52.2764 326.384 51.4137C325.792 50.5351 325.426 49.4561 325.287 48.1765C325.147 46.8969 325.271 45.7722 325.661 44.8024C326.049 43.8168 326.651 43.0316 327.466 42.4469C328.281 41.8622 329.242 41.5095 330.348 41.3886ZM343.607 39.9392C344.429 39.8494 345.162 39.8972 345.805 40.0827C346.465 40.2664 347.05 40.5701 347.559 40.994C348.069 41.4178 348.502 41.9381 348.857 42.5547L347.149 43.6046C346.814 42.874 346.364 42.3396 345.799 42.0017C345.249 41.6462 344.563 41.5134 343.741 41.6032C342.951 41.6895 342.292 41.9454 341.763 42.3709C341.232 42.7806 340.854 43.3415 340.628 44.0536C340.4 44.75 340.338 45.572 340.442 46.5199C340.544 47.452 340.782 48.2412 341.156 48.8877C341.531 49.5342 342.022 50.008 342.631 50.3092C343.237 50.5946 343.936 50.6941 344.726 50.6078C345.342 50.5405 345.861 50.3878 346.282 50.1499C346.72 49.9103 347.061 49.5932 347.305 49.1988C347.566 48.8026 347.723 48.3379 347.776 47.8044L349.597 48.2289C349.408 48.9849 349.105 49.6495 348.688 50.2226C348.287 50.794 347.77 51.2582 347.138 51.6151C346.519 51.9544 345.792 52.1698 344.954 52.2614C343.848 52.3822 342.834 52.2453 341.912 51.8505C340.99 51.4558 340.233 50.827 339.644 49.9643C339.052 49.0858 338.686 48.0067 338.546 46.7271C338.406 45.4475 338.531 44.3228 338.921 43.353C339.309 42.3674 339.91 41.5823 340.726 40.9976C341.541 40.4129 342.502 40.0601 343.607 39.9392ZM356.867 38.4899C357.989 38.3673 359.003 38.5042 359.91 38.9007C360.832 39.2954 361.589 39.9321 362.181 40.8106C362.77 41.6733 363.135 42.7445 363.275 44.0241C363.415 45.3037 363.291 46.4363 362.903 47.4219C362.514 48.3917 361.911 49.169 361.096 49.7536C360.296 50.3366 359.336 50.6894 358.214 50.812C357.108 50.9329 356.094 50.7959 355.172 50.4012C354.249 50.0064 353.493 49.3777 352.903 48.515C352.312 47.6364 351.946 46.5574 351.806 45.2777C351.666 43.9981 351.791 42.8734 352.181 41.9036C352.569 40.9181 353.17 40.1329 353.985 39.5482C354.801 38.9635 355.761 38.6107 356.867 38.4899ZM357.046 40.1249C356.24 40.213 355.573 40.4698 355.044 40.8953C354.515 41.3208 354.13 41.8905 353.888 42.6043C353.66 43.3006 353.598 44.1227 353.702 45.0705C353.804 46.0026 354.042 46.7919 354.416 47.4384C354.806 48.0831 355.306 48.5561 355.914 48.8573C356.523 49.1585 357.23 49.265 358.035 49.177C358.841 49.0889 359.508 48.8321 360.037 48.4066C360.566 47.9811 360.944 47.4123 361.17 46.7002C361.411 45.9863 361.481 45.1634 361.38 44.2313C361.276 43.2835 361.03 42.4951 360.641 41.8661C360.267 41.2196 359.776 40.7458 359.167 40.4446C358.559 40.1434 357.852 40.0368 357.046 40.1249ZM371.807 49.3263C371.048 49.4092 370.314 49.3456 369.604 49.1354C368.909 48.9236 368.314 48.5251 367.818 47.9398C367.337 47.337 367.04 46.5221 366.928 45.4953L366.078 37.7229L367.974 37.5156L368.769 44.7905C368.9 45.9911 369.252 46.792 369.823 47.1931C370.393 47.5785 371.151 47.7193 372.099 47.6157C372.542 47.5674 372.968 47.4488 373.379 47.26C373.789 47.0554 374.142 46.777 374.439 46.4248C374.75 46.055 374.973 45.607 375.107 45.0808C375.257 44.5528 375.295 43.9413 375.219 43.2462L374.514 36.8008L376.41 36.5936L377.705 48.4418L376.046 48.6231L375.731 46.8351C375.398 47.5909 374.894 48.1735 374.219 48.583C373.559 48.9749 372.754 49.2227 371.807 49.3263ZM382.117 47.9595L380.822 36.1113L382.48 35.93L382.936 38.5659L382.6 38.3389C382.784 37.6793 383.068 37.1367 383.453 36.7109C383.836 36.2694 384.295 35.9315 384.829 35.6973C385.379 35.4613 385.954 35.3106 386.554 35.2449C387.407 35.1517 388.199 35.233 388.931 35.4887C389.66 35.7287 390.267 36.158 390.75 36.7766C391.249 37.3935 391.555 38.2153 391.667 39.2422L392.496 46.8251L390.6 47.0323L389.844 40.1129C389.7 38.8017 389.317 37.9244 388.693 37.4811C388.083 37.0202 387.367 36.8346 386.546 36.9244C385.977 36.9866 385.423 37.183 384.884 37.5137C384.344 37.8445 383.918 38.3307 383.604 38.9725C383.307 39.6125 383.213 40.438 383.324 41.4491L384.013 47.7523L382.117 47.9595ZM397.76 30.8548L399.065 42.7978C399.129 43.3823 399.342 43.7987 399.705 44.0467C400.068 44.2948 400.51 44.3904 401.031 44.3334C401.489 44.2833 401.876 44.1612 402.19 43.9669C402.505 43.7727 402.782 43.5266 403.021 43.2287L403.858 44.7439C403.531 45.1153 403.125 45.4235 402.64 45.6683C402.171 45.9114 401.613 46.0683 400.965 46.1391C400.365 46.2048 399.793 46.1634 399.249 46.015C398.703 45.8508 398.248 45.5569 397.881 45.1333C397.53 44.6922 397.304 44.0934 397.206 43.3368L395.921 31.5834L397.76 30.8548ZM402.44 33.7483L402.619 35.3834L394.041 36.321L393.862 34.6859L402.44 33.7483ZM410.845 45.0592C409.692 45.1852 408.599 45.0569 407.566 44.6743C406.549 44.2899 405.73 43.6759 405.11 42.8325L406.595 41.4952C407.022 42.1839 407.589 42.6974 408.298 43.0356C409.022 43.3721 409.858 43.4885 410.806 43.3849C411.643 43.2934 412.282 43.0637 412.721 42.696C413.159 42.3124 413.349 41.86 413.292 41.3387C413.256 41.0069 413.112 40.7189 412.862 40.4745C412.625 40.2126 412.2 40.0512 411.586 39.9905L408.678 39.7089C407.498 39.598 406.626 39.2937 406.06 38.796C405.51 38.2966 405.19 37.6362 405.1 36.8147C405.029 36.167 405.146 35.5547 405.451 34.9779C405.771 34.3994 406.254 33.915 406.899 33.5248C407.557 33.117 408.353 32.8622 409.285 32.7604C410.454 32.6326 411.466 32.7537 412.322 33.1238C413.178 33.4939 413.849 34.0759 414.335 34.87L412.862 36.0862C412.517 35.4205 412.027 34.9624 411.393 34.7121C410.756 34.446 410.114 34.3483 409.466 34.4191C408.897 34.4813 408.416 34.6138 408.023 34.8167C407.645 35.0178 407.361 35.2726 407.171 35.5812C406.995 35.8722 406.926 36.1915 406.964 36.539C407.002 36.8866 407.156 37.1975 407.426 37.4717C407.694 37.7302 408.159 37.8872 408.82 37.9428L411.85 38.2351C412.98 38.3354 413.793 38.6141 414.291 39.0713C414.789 39.5285 415.077 40.1204 415.157 40.8471C415.238 41.5896 415.112 42.2668 414.779 42.8787C414.445 43.4748 413.938 43.9617 413.26 44.3396C412.582 44.7174 411.777 44.9573 410.845 45.0592Z" fill="white"/>
</g>
<g filter="url(#filter4_b_692_17583)">
<rect width="257.744" height="65.5533" rx="32.7767" transform="matrix(1 0 0 -1 199.64 141.936)" fill="#F4CB05" fill-opacity="0.1"/>
<rect x="0.744924" y="-0.744924" width="256.254" height="64.0635" rx="32.0317" transform="matrix(1 0 0 -1 199.64 140.446)" stroke="#F4CB05" stroke-width="1.48985"/>
<path d="M247.791 101.426L241.831 117.159H239.662L233.679 101.426H235.729L239.734 112.296L240.735 115.419L241.736 112.32L245.741 101.426H247.791ZM251.639 102.952C251.21 102.952 250.86 102.825 250.59 102.571C250.336 102.3 250.209 101.951 250.209 101.522C250.209 101.093 250.336 100.751 250.59 100.497C250.86 100.226 251.21 100.091 251.639 100.091C252.068 100.091 252.41 100.226 252.664 100.497C252.934 100.751 253.069 101.093 253.069 101.522C253.069 101.951 252.934 102.3 252.664 102.571C252.41 102.825 252.068 102.952 251.639 102.952ZM252.593 105.24V117.159H250.686V105.24H252.593ZM257.017 117.159V105.24H258.567L258.829 107.195C259.163 106.464 259.647 105.916 260.283 105.55C260.935 105.185 261.721 105.002 262.643 105.002C262.85 105.002 263.072 105.018 263.311 105.05C263.565 105.081 263.779 105.145 263.954 105.24L263.62 106.98C263.446 106.917 263.255 106.869 263.048 106.837C262.842 106.806 262.548 106.79 262.166 106.79C261.674 106.79 261.173 106.933 260.665 107.219C260.172 107.505 259.759 107.942 259.425 108.53C259.091 109.102 258.924 109.833 258.924 110.723V117.159H257.017ZM268.839 101.855V113.87C268.839 114.458 269.006 114.895 269.34 115.181C269.673 115.467 270.103 115.61 270.627 115.61C271.088 115.61 271.485 115.53 271.819 115.371C272.153 115.212 272.455 114.998 272.725 114.728L273.392 116.325C273.027 116.659 272.59 116.921 272.081 117.111C271.588 117.302 271.016 117.397 270.365 117.397C269.761 117.397 269.197 117.294 268.672 117.088C268.148 116.865 267.727 116.523 267.409 116.063C267.107 115.586 266.948 114.966 266.932 114.203V102.38L268.839 101.855ZM273.178 105.24V106.885H264.548V105.24H273.178ZM280.328 117.397C279.565 117.397 278.842 117.254 278.158 116.968C277.491 116.682 276.943 116.222 276.514 115.586C276.1 114.934 275.894 114.092 275.894 113.059V105.24H277.801V112.558C277.801 113.766 278.063 114.601 278.587 115.061C279.112 115.506 279.851 115.729 280.804 115.729C281.249 115.729 281.686 115.657 282.115 115.514C282.544 115.355 282.926 115.117 283.26 114.799C283.609 114.465 283.879 114.044 284.07 113.536C284.277 113.027 284.38 112.423 284.38 111.724V105.24H286.287V117.159H284.618L284.499 115.347C284.086 116.063 283.522 116.587 282.807 116.921C282.107 117.239 281.281 117.397 280.328 117.397ZM297.686 109.46C297.686 108.57 297.447 107.886 296.971 107.41C296.494 106.917 295.819 106.671 294.944 106.671C294.118 106.671 293.419 106.853 292.847 107.219C292.275 107.568 291.854 108.141 291.583 108.935L290.034 107.982C290.352 107.092 290.94 106.377 291.798 105.836C292.656 105.28 293.721 105.002 294.992 105.002C295.85 105.002 296.629 105.153 297.328 105.455C298.027 105.741 298.576 106.186 298.973 106.79C299.386 107.378 299.593 108.141 299.593 109.078V114.847C299.593 115.419 299.895 115.705 300.499 115.705C300.801 115.705 301.095 115.665 301.381 115.586L301.285 117.088C300.967 117.247 300.554 117.326 300.046 117.326C299.585 117.326 299.172 117.239 298.806 117.064C298.441 116.889 298.155 116.627 297.948 116.277C297.741 115.912 297.638 115.459 297.638 114.918V114.68L298.115 114.752C297.924 115.371 297.598 115.88 297.138 116.277C296.677 116.659 296.16 116.945 295.588 117.135C295.016 117.31 294.452 117.397 293.896 117.397C293.196 117.397 292.545 117.278 291.941 117.04C291.337 116.802 290.852 116.444 290.487 115.967C290.137 115.475 289.962 114.871 289.962 114.156C289.962 113.266 290.256 112.535 290.844 111.963C291.448 111.375 292.283 110.977 293.347 110.771L298.067 109.841V111.414L294.229 112.201C293.451 112.36 292.871 112.582 292.489 112.868C292.108 113.154 291.917 113.552 291.917 114.06C291.917 114.553 292.108 114.958 292.489 115.276C292.886 115.578 293.443 115.729 294.158 115.729C294.619 115.729 295.056 115.673 295.469 115.562C295.898 115.435 296.279 115.252 296.613 115.014C296.947 114.759 297.209 114.45 297.4 114.084C297.59 113.703 297.686 113.258 297.686 112.749V109.46ZM306.039 99.7577V114.132C306.039 114.736 306.15 115.157 306.372 115.395C306.595 115.618 306.952 115.729 307.445 115.729C307.763 115.729 308.025 115.705 308.232 115.657C308.438 115.61 308.716 115.522 309.066 115.395L308.756 117.064C308.502 117.175 308.224 117.254 307.922 117.302C307.62 117.366 307.31 117.397 306.992 117.397C306.023 117.397 305.3 117.135 304.823 116.611C304.362 116.086 304.132 115.284 304.132 114.203V99.7577H306.039ZM330.741 117.159H328.715L327.046 112.797H319.919L318.25 117.159H316.248L322.374 101.426H324.639L330.741 117.159ZM320.61 111.009H326.355L323.471 103.262L320.61 111.009ZM338.307 105.002C339.133 105.002 339.856 105.129 340.476 105.383C341.111 105.638 341.66 106.003 342.121 106.48C342.581 106.957 342.955 107.521 343.241 108.172L341.429 109.031C341.175 108.268 340.786 107.688 340.261 107.29C339.753 106.877 339.085 106.671 338.259 106.671C337.464 106.671 336.781 106.853 336.209 107.219C335.637 107.568 335.2 108.085 334.898 108.768C334.596 109.436 334.445 110.246 334.445 111.2C334.445 112.137 334.596 112.948 334.898 113.631C335.2 114.315 335.637 114.839 336.209 115.204C336.781 115.554 337.464 115.729 338.259 115.729C338.879 115.729 339.411 115.634 339.856 115.443C340.317 115.252 340.69 114.974 340.976 114.608C341.278 114.243 341.485 113.798 341.596 113.274L343.36 113.893C343.09 114.624 342.716 115.252 342.24 115.777C341.779 116.301 341.215 116.706 340.547 116.992C339.896 117.262 339.149 117.397 338.307 117.397C337.194 117.397 336.201 117.151 335.327 116.659C334.453 116.166 333.769 115.459 333.277 114.537C332.784 113.599 332.538 112.487 332.538 111.2C332.538 109.912 332.784 108.808 333.277 107.886C333.769 106.949 334.453 106.234 335.327 105.741C336.201 105.248 337.194 105.002 338.307 105.002ZM351.645 105.002C352.472 105.002 353.195 105.129 353.815 105.383C354.45 105.638 354.998 106.003 355.459 106.48C355.92 106.957 356.294 107.521 356.58 108.172L354.768 109.031C354.514 108.268 354.124 107.688 353.6 107.29C353.091 106.877 352.424 106.671 351.598 106.671C350.803 106.671 350.12 106.853 349.548 107.219C348.975 107.568 348.538 108.085 348.237 108.768C347.935 109.436 347.784 110.246 347.784 111.2C347.784 112.137 347.935 112.948 348.237 113.631C348.538 114.315 348.975 114.839 349.548 115.204C350.12 115.554 350.803 115.729 351.598 115.729C352.217 115.729 352.75 115.634 353.195 115.443C353.656 115.252 354.029 114.974 354.315 114.608C354.617 114.243 354.824 113.798 354.935 113.274L356.699 113.893C356.429 114.624 356.055 115.252 355.579 115.777C355.118 116.301 354.553 116.706 353.886 116.992C353.234 117.262 352.488 117.397 351.645 117.397C350.533 117.397 349.54 117.151 348.666 116.659C347.792 116.166 347.108 115.459 346.616 114.537C346.123 113.599 345.877 112.487 345.877 111.2C345.877 109.912 346.123 108.808 346.616 107.886C347.108 106.949 347.792 106.234 348.666 105.741C349.54 105.248 350.533 105.002 351.645 105.002ZM364.984 105.002C366.112 105.002 367.106 105.248 367.964 105.741C368.838 106.234 369.521 106.949 370.014 107.886C370.506 108.808 370.753 109.912 370.753 111.2C370.753 112.487 370.506 113.599 370.014 114.537C369.521 115.459 368.838 116.166 367.964 116.659C367.106 117.151 366.112 117.397 364.984 117.397C363.872 117.397 362.878 117.151 362.004 116.659C361.13 116.166 360.447 115.459 359.954 114.537C359.462 113.599 359.215 112.487 359.215 111.2C359.215 109.912 359.462 108.808 359.954 107.886C360.447 106.949 361.13 106.234 362.004 105.741C362.878 105.248 363.872 105.002 364.984 105.002ZM364.984 106.647C364.174 106.647 363.482 106.83 362.91 107.195C362.338 107.561 361.893 108.085 361.575 108.768C361.273 109.436 361.122 110.246 361.122 111.2C361.122 112.137 361.273 112.948 361.575 113.631C361.893 114.315 362.338 114.839 362.91 115.204C363.482 115.57 364.174 115.753 364.984 115.753C365.795 115.753 366.486 115.57 367.058 115.204C367.63 114.839 368.067 114.315 368.369 113.631C368.687 112.948 368.846 112.137 368.846 111.2C368.846 110.246 368.687 109.436 368.369 108.768C368.067 108.085 367.63 107.561 367.058 107.195C366.486 106.83 365.795 106.647 364.984 106.647ZM378.658 117.397C377.895 117.397 377.172 117.254 376.488 116.968C375.821 116.682 375.273 116.222 374.844 115.586C374.43 114.934 374.224 114.092 374.224 113.059V105.24H376.131V112.558C376.131 113.766 376.393 114.601 376.917 115.061C377.442 115.506 378.181 115.729 379.134 115.729C379.579 115.729 380.016 115.657 380.445 115.514C380.874 115.355 381.256 115.117 381.59 114.799C381.939 114.465 382.209 114.044 382.4 113.536C382.607 113.027 382.71 112.423 382.71 111.724V105.24H384.617V117.159H382.948L382.829 115.347C382.416 116.063 381.852 116.587 381.137 116.921C380.437 117.239 379.611 117.397 378.658 117.397ZM389.055 117.159V105.24H390.724L390.891 107.91L390.581 107.648C390.835 107.012 391.177 106.504 391.606 106.122C392.035 105.725 392.528 105.439 393.084 105.264C393.656 105.089 394.244 105.002 394.848 105.002C395.706 105.002 396.485 105.169 397.184 105.503C397.883 105.82 398.439 106.313 398.852 106.98C399.282 107.648 399.496 108.498 399.496 109.531V117.159H397.589V110.199C397.589 108.88 397.303 107.966 396.731 107.457C396.175 106.933 395.483 106.671 394.657 106.671C394.085 106.671 393.513 106.806 392.941 107.076C392.369 107.346 391.892 107.783 391.51 108.387C391.145 108.991 390.962 109.801 390.962 110.818V117.159H389.055ZM406.464 101.855V113.87C406.464 114.458 406.631 114.895 406.964 115.181C407.298 115.467 407.727 115.61 408.252 115.61C408.713 115.61 409.11 115.53 409.444 115.371C409.777 115.212 410.079 114.998 410.349 114.728L411.017 116.325C410.651 116.659 410.214 116.921 409.706 117.111C409.213 117.302 408.641 117.397 407.99 117.397C407.386 117.397 406.821 117.294 406.297 117.088C405.773 116.865 405.351 116.523 405.034 116.063C404.732 115.586 404.573 114.966 404.557 114.203V102.38L406.464 101.855ZM410.802 105.24V106.885H402.173V105.24H410.802ZM417.928 117.397C416.768 117.397 415.696 117.151 414.71 116.659C413.741 116.166 412.994 115.467 412.47 114.561L414.091 113.393C414.44 114.124 414.949 114.696 415.616 115.109C416.3 115.522 417.118 115.729 418.072 115.729C418.914 115.729 419.573 115.57 420.05 115.252C420.527 114.918 420.765 114.489 420.765 113.965C420.765 113.631 420.654 113.329 420.431 113.059C420.225 112.773 419.82 112.566 419.216 112.439L416.355 111.843C415.195 111.605 414.361 111.208 413.852 110.651C413.36 110.095 413.113 109.404 413.113 108.578C413.113 107.926 413.296 107.33 413.662 106.79C414.043 106.249 414.575 105.82 415.259 105.503C415.958 105.169 416.776 105.002 417.714 105.002C418.89 105.002 419.883 105.232 420.694 105.693C421.504 106.154 422.108 106.806 422.505 107.648L420.908 108.697C420.638 107.998 420.201 107.489 419.597 107.171C418.993 106.837 418.366 106.671 417.714 106.671C417.142 106.671 416.649 106.75 416.236 106.909C415.839 107.068 415.529 107.29 415.306 107.576C415.1 107.847 414.996 108.156 414.996 108.506C414.996 108.856 415.116 109.181 415.354 109.483C415.592 109.769 416.037 109.976 416.689 110.103L419.669 110.723C420.781 110.945 421.56 111.311 422.005 111.82C422.45 112.328 422.672 112.948 422.672 113.679C422.672 114.426 422.474 115.085 422.076 115.657C421.679 116.214 421.123 116.643 420.408 116.945C419.692 117.247 418.866 117.397 417.928 117.397Z" fill="white"/>
</g>
<defs>
<filter id="filter0_b_692_17583" x="-7.44924" y="51.055" width="245.825" height="80.4518" filterUnits="userSpaceOnUse" color-interpolation-filters="sRGB">
<feFlood flood-opacity="0" result="BackgroundImageFix"/>
<feGaussianBlur in="BackgroundImageFix" stdDeviation="3.72462"/>
<feComposite in2="SourceAlpha" operator="in" result="effect1_backgroundBlur_692_17583"/>
<feBlend mode="normal" in="SourceGraphic" in2="effect1_backgroundBlur_692_17583" result="shape"/>
</filter>
<filter id="filter1_b_692_17583" x="114.19" y="119.205" width="173.879" height="90.6653" filterUnits="userSpaceOnUse" color-interpolation-filters="sRGB">
<feFlood flood-opacity="0" result="BackgroundImageFix"/>
<feGaussianBlur in="BackgroundImageFix" stdDeviation="3.72462"/>
<feComposite in2="SourceAlpha" operator="in" result="effect1_backgroundBlur_692_17583"/>
<feBlend mode="normal" in="SourceGraphic" in2="effect1_backgroundBlur_692_17583" result="shape"/>
</filter>
<filter id="filter2_b_692_17583" x="45.5284" y="-0.962181" width="174.261" height="91.7168" filterUnits="userSpaceOnUse" color-interpolation-filters="sRGB">
<feFlood flood-opacity="0" result="BackgroundImageFix"/>
<feGaussianBlur in="BackgroundImageFix" stdDeviation="3.72462"/>
<feComposite in2="SourceAlpha" operator="in" result="effect1_backgroundBlur_692_17583"/>
<feBlend mode="normal" in="SourceGraphic" in2="effect1_backgroundBlur_692_17583" result="shape"/>
</filter>
<filter id="filter3_b_692_17583" x="181.943" y="-7.4493" width="278.239" height="108.07" filterUnits="userSpaceOnUse" color-interpolation-filters="sRGB">
<feFlood flood-opacity="0" result="BackgroundImageFix"/>
<feGaussianBlur in="BackgroundImageFix" stdDeviation="3.72462"/>
<feComposite in2="SourceAlpha" operator="in" result="effect1_backgroundBlur_692_17583"/>
<feBlend mode="normal" in="SourceGraphic" in2="effect1_backgroundBlur_692_17583" result="shape"/>
</filter>
<filter id="filter4_b_692_17583" x="192.19" y="68.9332" width="272.642" height="80.4518" filterUnits="userSpaceOnUse" color-interpolation-filters="sRGB">
<feFlood flood-opacity="0" result="BackgroundImageFix"/>
<feGaussianBlur in="BackgroundImageFix" stdDeviation="3.72462"/>
<feComposite in2="SourceAlpha" operator="in" result="effect1_backgroundBlur_692_17583"/>
<feBlend mode="normal" in="SourceGraphic" in2="effect1_backgroundBlur_692_17583" result="shape"/>
</filter>
</defs>
</svg>
